# xmcd
#
# Track frame offsets:
#	150
#	13675
#	31947
#	47159
#	58223
#	71020
#	84845
#	99229
#	111089
#	121521
#	135873
#	148630
#	162744
#	173496
#	184641
#	198895
#	211797
#	223952
#	239744
#	254881
#
# Disc length: 3611 seconds
#
# Revision: 1
# Processed by: cddbd v1.5.2PL0 Copyright (c) Steve Scherf et al.
# Submitted via: EZCDAudioConverter 1.3.4.1
#
DISCID=1c0e1914
DTITLE=許\冠傑 - 極品音色系列_許\冠傑 Disc2
DYEAR=1999
DGENRE=Pop-Folk
TTITLE0=滄海一聲笑
TTITLE1=急流勇退
TTITLE2=尖沙嘴susie
TTITLE3=錫曬你
TTITLE4=莫等待
TTITLE5=相思萬千重
TTITLE6=斷腸夢
TTITLE7=等玉人
TTITLE8=夜雨聲
TTITLE9=共你常為伴
TTITLE10=杯酒當歌
TTITLE11=天才與白痴
TTITLE12=半斤八兩
TTITLE13=鬼馬雙星
TTITLE14=打雀英雄傳
TTITLE15=制水歌
TTITLE16=我愛你
TTITLE17=應該要自愛
TTITLE18=學生哥
TTITLE19=有酒今朝醉
EXTD=
EXTT0=
EXTT1=
EXTT2=
EXTT3=
EXTT4=
EXTT5=
EXTT6=
EXTT7=
EXTT8=
EXTT9=
EXTT10=
EXTT11=
EXTT12=
EXTT13=
EXTT14=
EXTT15=
EXTT16=
EXTT17=
EXTT18=
EXTT19=
PLAYORDER=
